Coordinates
version=1
nRows=27
nColumns=12
inDegrees=yes

Units are S.I. units (second, meters, Newtons, ...)
Angles are in degrees

endheader
time	SC_y	SC_z	SC_x	AC_y	AC_z	AC_x	GH_y	GH_z	GH_yy	EL_x	PS_y
       0.0              -42.74          2.467          72.62          38.05          -14.1          12.66          104.1         -4.961          130.7          98.39          63.41
    0.0125              -42.74          2.466          72.62          38.06          -14.1          12.66          104.1         -4.957          130.6          98.39          63.42
   0.02499              -42.74          2.465          72.61          38.06          -14.1          12.66          104.1         -4.954          130.6           98.4          63.43
   0.03749              -42.74          2.464           72.6          38.06          -14.1          12.66          104.1          -4.95          130.6          98.41          63.43
   0.04999              -42.74          2.463          72.59          38.06         -14.09          12.65          104.1         -4.946          130.5          98.41          63.44
   0.06249              -42.73          2.462          72.59          38.07         -14.09          12.65          104.1         -4.942          130.5          98.42          63.45
   0.07498              -42.73          2.461          72.58          38.07         -14.09          12.65          104.1         -4.937          130.4          98.43          63.45
   0.08748              -42.73           2.46          72.57          38.07         -14.08          12.64          104.1         -4.932          130.4          98.44          63.46
   0.09998              -42.73          2.459          72.56          38.08         -14.08          12.64          104.1         -4.927          130.3          98.45          63.47
    0.1125              -42.73          2.457          72.55          38.08         -14.08          12.63          104.1         -4.921          130.3          98.45          63.48
     0.125              -42.72          2.456          72.53          38.09         -14.07          12.63          104.1         -4.915          130.2          98.47          63.49
    0.1375              -42.72          2.454          72.52          38.09         -14.07          12.62          104.1         -4.908          130.1          98.48           63.5
      0.15              -42.72          2.453          72.51           38.1         -14.06          12.62          104.1         -4.901          130.0          98.49          63.51
    0.1625              -42.71          2.451          72.49           38.1         -14.06          12.61          104.1         -4.894          130.0           98.5          63.53
     0.175              -42.71          2.449          72.48          38.11         -14.05          12.61          104.1         -4.885          129.9          98.52          63.54
    0.1875              -42.71          2.447          72.46          38.11         -14.04           12.6          104.1         -4.876          129.8          98.53          63.56
       0.2               -42.7          2.444          72.44          38.12         -14.04          12.59          104.1         -4.867          129.7          98.55          63.57
    0.2124               -42.7          2.442          72.42          38.13         -14.03          12.58          104.1         -4.856          129.6          98.57          63.59
    0.2249               -42.7          2.439           72.4          38.13         -14.02          12.58          104.1         -4.844          129.4          98.59          63.61
    0.2374              -42.69          2.436          72.37          38.14         -14.01          12.57          104.1         -4.832          129.3          98.61          63.63
    0.2499              -42.68          2.433          72.35          38.15          -14.0          12.55          104.1         -4.818          129.2          98.63          63.66
    0.2624              -42.68          2.429          72.32          38.16         -13.99          12.54          104.1         -4.802          129.0          98.66          63.68
    0.2749              -42.67          2.425          72.29          38.18         -13.98          12.53          104.1         -4.785          128.8          98.69          63.71
    0.2874              -42.66           2.42          72.25          38.19         -13.96          12.52          104.1         -4.766          128.6          98.72          63.74
    0.2999              -42.66          2.415          72.21           38.2         -13.95           12.5          104.1         -4.745          128.4          98.76          63.78
    0.3124              -42.65           2.41          72.16          38.22         -13.93          12.48          104.1         -4.722          128.2           98.8          63.82
    0.3249              -42.64          2.403          72.11          38.24         -13.91          12.46          104.1         -4.696          127.9          98.84          63.86
